<svg width="100%" viewBox="0 0 230 230" xmlns="http://www.w3.org/2000/svg">

  <!-- orange ring -->
  <circle cx="115" cy="115" r="110" fill="none" stroke="#f97316" stroke-width="4"/>
  <!-- dark fill -->
  <circle cx="115" cy="115" r="105" fill="#1c1917"/>

  <!-- C shape white -->
  <path d="M158 48 A68 68 0 1 0 158 182" fill="none" stroke="#fdf6ee" stroke-width="22" stroke-linecap="round"/>

  <!-- stumps in C gap -->
  <rect x="162" y="62"  width="9" height="44" rx="3" fill="#f97316"/>
  <rect x="176" y="62"  width="9" height="44" rx="3" fill="#f97316"/>
  <rect x="190" y="62"  width="9" height="44" rx="3" fill="#f97316"/>
  <!-- bails -->
  <rect x="160" y="56" width="22" height="7" rx="3" fill="#fdba74"/>
  <rect x="174" y="56" width="22" height="7" rx="3" fill="#fdba74"/>

  <!-- bat leaning -->
  <g transform="translate(206,54) rotate(16)">
    <rect x="-5" y="-30" width="10" height="24" rx="5" fill="#fdba74"/>
    <rect x="-5" y="-30" width="10" height="6"  rx="3" fill="#f97316"/>
    <rect x="-5" y="-20" width="10" height="6"  rx="3" fill="#f97316"/>
    <rect x="-5" y="-10" width="10" height="6"  rx="3" fill="#f97316"/>
    <rect x="-14" y="-6" width="28" height="60" rx="8" fill="#fdf6ee"/>
    <rect x="-4"  y="-2" width="8"  height="52" rx="4" fill="#e8ddd0"/>
    <ellipse cx="0" cy="56" rx="14" ry="9" fill="#fdf6ee"/>
  </g>

  <!-- ball above stumps -->
  <circle cx="178" cy="44" r="20" fill="#f97316"/>
  <path d="M167 37 Q178 29 189 37" fill="none" stroke="#fff" stroke-width="1.8" stroke-linecap="round"/>
  <path d="M167 51 Q178 59 189 51" fill="none" stroke="#fff" stroke-width="1.8" stroke-linecap="round"/>
  <path d="M173 26 Q169 44 173 62"  fill="none" stroke="#fff" stroke-width="1.4" stroke-linecap="round"/>
  <path d="M183 26 Q187 44 183 62"  fill="none" stroke="#fff" stroke-width="1.4" stroke-linecap="round"/>

</svg>
