<?xml version="1.0" encoding="UTF-8"?>
<svg version="1.1" xmlns="http://www.w3.org/2000/svg" width="64" height="64">
<path d="M0 0 C5.18597831 -0.19984744 9.68808915 0.45592748 14.6484375 1.86328125 C15.6954332 2.15225533 15.6954332 2.15225533 16.76358032 2.44706726 C18.2253448 2.85359317 19.68582141 3.26477641 21.14501953 3.68041992 C23.3854874 4.31547262 25.63155305 4.92693169 27.87890625 5.53710938 C29.30247773 5.93609546 30.72566996 6.33643775 32.1484375 6.73828125 C32.82127777 6.91966141 33.49411804 7.10104156 34.18734741 7.28791809 C36.06005859 7.83325195 36.06005859 7.83325195 39 9 C39.495 10.485 39.495 10.485 40 12 C41.258125 11.938125 42.51625 11.87625 43.8125 11.8125 C49.31892583 11.82998072 55.03610658 12.51381065 60 15 C61.84106884 18.42933419 62.22086071 21.13493759 62 25 C60.02 25 58.04 25 56 25 C55.80606125 27.14526099 55.62001324 29.29123677 55.4375 31.4375 C55.33308594 32.63246094 55.22867188 33.82742187 55.12109375 35.05859375 C55.08113281 36.02925781 55.04117188 36.99992187 55 38 C55.33 38.33 55.66 38.66 56 39 C56.1875 41.4375 56.1875 41.4375 56 44 C53.31907309 46.68092691 51.60832637 46.38670257 47.875 46.625 C46.77929688 46.69976562 45.68359375 46.77453125 44.5546875 46.8515625 C43.71164063 46.90054688 42.86859375 46.94953125 42 47 C41.67 48.65 41.34 50.3 41 52 C41.66 52 42.32 52 43 52 C45.64694025 56.63214543 46 58.34968203 46 64 C37.09 64 28.18 64 19 64 C16 57 16 57 15.0625 54.125 C14.2085522 51.80816382 14.2085522 51.80816382 11.9375 51.25 C11.298125 51.1675 10.65875 51.085 10 51 C9 50 9 50 8.90234375 48.15234375 C8.95117188 45.07617188 8.95117188 45.07617188 9 42 C10.32 41.34 11.64 40.68 13 40 C12.505 39.236875 12.01 38.47375 11.5 37.6875 C10 35 10 35 10 32 C9.01 32 8.02 32 7 32 C6.45669731 25.34454208 7.22695996 21.54165256 11 16 C9.783125 15.54625 8.56625 15.0925 7.3125 14.625 C4.1919073 13.45547059 1.08769384 12.25437562 -2 11 C-2.28571429 3.57142857 -2.28571429 3.57142857 0 0 Z M29 21 C29.33 21.66 29.66 22.32 30 23 C30.22467831 24.53668865 30.40796805 26.07968054 30.5625 27.625 C30.64628906 28.44226563 30.73007812 29.25953125 30.81640625 30.1015625 C30.87699219 30.72804688 30.93757813 31.35453125 31 32 C30.01 32 29.02 32 28 32 C27.67 33.32 27.34 34.64 27 36 C29.64 36 32.28 36 35 36 C37.20808081 30.80451575 36.93402724 27.41735797 36 22 C33.69 21.67 31.38 21.34 29 21 Z " fill="#11161C" transform="translate(2,0)"/>
<path d="M0 0 C2.98561802 2.35706686 4.05062219 4.32009115 5.375 7.875 C5.375 9.855 5.375 11.835 5.375 13.875 C-3.535 13.875 -12.445 13.875 -21.625 13.875 C-23.33701309 9.88030278 -25.03395202 5.91381411 -26.625 1.875 C-23.56352743 1.36857075 -20.50067701 0.87100678 -17.4375 0.375 C-16.57318359 0.23191406 -15.70886719 0.08882812 -14.81835938 -0.05859375 C-4.14452037 -1.77622302 -4.14452037 -1.77622302 0 0 Z " fill="#2A91F8" transform="translate(42.625,50.125)"/>
<path d="M0 0 C11.39811763 2.77964994 22.70963045 5.81151601 34 9 C34 9.99 34 10.98 34 12 C24.38443671 10.608547 15.26190729 7.84480623 6 5 C6 5.66 6 6.32 6 7 C7.299375 7.226875 8.59875 7.45375 9.9375 7.6875 C17.76909046 9.2357365 25.36980154 11.68084455 33 14 C33 14.99 33 15.98 33 17 C25.60352586 16.37318016 25.60352586 16.37318016 22.65625 14.55078125 C19.5058875 12.71152549 16.76720074 12.16305372 13.1875 11.5 C7.83700366 10.43665215 3.02235976 9.1093911 -2 7 C-2 4 -2 4 -1 3 C-0.67 2.01 -0.34 1.02 0 0 Z " fill="#DBBC99" transform="translate(4,2)"/>
<path d="M0 0 C1.17175781 -0.04350586 1.17175781 -0.04350586 2.3671875 -0.08789062 C8.12508883 -0.15197686 8.12508883 -0.15197686 10.6640625 2.20703125 C11.625 4.3125 11.625 4.3125 11.625 6.3125 C4.87190051 7.72623298 -1.46570403 8.75118546 -8.375 8.3125 C-9.035 7.6525 -9.695 6.9925 -10.375 6.3125 C-9.49844169 -0.87527815 -6.46980866 0.07928687 0 0 Z " fill="#FAFBFD" transform="translate(23.375,41.6875)"/>
<path d="M0 0 C1.18359375 1.4609375 1.18359375 1.4609375 2.4375 3.375 C4.21688245 6.08590869 5.19194031 7.12796021 8 9 C7.67 9.66 7.34 10.32 7 11 C4.890625 11.37890625 4.890625 11.37890625 2.25 11.5625 C-0.38258358 11.75560868 -2.88680589 11.97639554 -5.47265625 12.515625 C-8.25407378 13.0486942 -10.8568902 13.16819161 -13.6875 13.1875 C-14.64011719 13.20167969 -15.59273437 13.21585938 -16.57421875 13.23046875 C-19 13 -19 13 -21 11 C-21.265625 9.125 -21.265625 9.125 -21.25 7 C-21.25515625 6.29875 -21.2603125 5.5975 -21.265625 4.875 C-21 3 -21 3 -19 1 C-16.14153106 0.6920755 -13.36625096 0.4879557 -10.5 0.375 C-9.71496094 0.33632813 -8.92992187 0.29765625 -8.12109375 0.2578125 C-5.4138003 0.12778811 -2.71086505 0 0 0 Z M-19 5 C-18.71016731 8.30683466 -18.71016731 8.30683466 -17 11 C-10.07735344 11.33496677 -3.76805475 10.4168638 3 9 C1.91215032 5.75016865 1.91215032 5.75016865 0 3 C-2.82416382 2.87336909 -5.61294793 2.81479452 -8.4375 2.8125 C-9.62182617 2.79413086 -9.62182617 2.79413086 -10.83007812 2.77539062 C-15.39134909 2.56110442 -15.39134909 2.56110442 -19 5 Z " fill="#08090D" transform="translate(32,39)"/>
<path d="M0 0 C0.66 0 1.32 0 2 0 C4.64694025 4.63214543 5 6.34968203 5 12 C-3.91 12 -12.82 12 -22 12 C-22.99 9.69 -23.98 7.38 -25 5 C-25.65288627 3.65986503 -26.31225595 2.32258472 -27 1 C-24.28902773 1.37392721 -23.17999533 1.81357627 -21.25 3.8125 C-20 6 -20 6 -20 10 C-12.41 10 -4.82 10 3 10 C2.01 8.02 1.02 6.04 0 4 C0 2.68 0 1.36 0 0 Z " fill="#000203" transform="translate(43,52)"/>
<path d="M0 0 C11.39811763 2.77964994 22.70963045 5.81151601 34 9 C34 9.99 34 10.98 34 12 C26.18020944 10.84597804 18.68270378 8.88728313 11.10791016 6.67700195 C7.98388412 5.77523166 5.26989051 5 2 5 C2 4.01 2 3.02 2 2 C1.34 2 0.68 2 0 2 C0 1.34 0 0.68 0 0 Z " fill="#DFCCB6" transform="translate(4,2)"/>
<path d="M0 0 C3 0.25 3 0.25 5 2.25 C5.25 5.25 5.25 5.25 5 8.25 C3 10.25 3 10.25 0 10.5 C-3 10.25 -3 10.25 -5 8.25 C-5.25 5.25 -5.25 5.25 -5 2.25 C-3 0.25 -3 0.25 0 0 Z " fill="#030101" transform="translate(5,42.75)"/>
<path d="M0 0 C2.97 0.495 2.97 0.495 6 1 C5.34 3.97 4.68 6.94 4 10 C2.02 10 0.04 10 -2 10 C-2.6875 7.25 -2.6875 7.25 -3 4 C-1.5625 1.625 -1.5625 1.625 0 0 Z " fill="#245DDC" transform="translate(43,14)"/>
<path d="M0 0 C1.32 0 2.64 0 4 0 C3.40380045 4.86896303 2.43023178 9.32790951 1 14 C-0.32 13.01 -1.64 12.02 -3 11 C-2.32829194 7.1936543 -1.27253436 3.64793184 0 0 Z " fill="#E8C3C3" transform="translate(41,29)"/>
<path d="M0 0 C2.375 1.375 2.375 1.375 4 3 C4 3.66 4 4.32 4 5 C-0.62 5 -5.24 5 -10 5 C-7.3091163 -0.3817674 -5.79447792 -0.46355823 0 0 Z " fill="#326FE4" transform="translate(24,16)"/>
<path d="M0 0 C9.51389771 1.68794959 18.71881118 4.3511204 28 7 C25 9 25 9 22.5390625 8.6796875 C21.57742187 8.41414062 20.61578125 8.14859375 19.625 7.875 C18.57054688 7.58753906 17.51609375 7.30007812 16.4296875 7.00390625 C10.93400574 5.39526136 5.45742785 3.73405369 0 2 C0 1.34 0 0.68 0 0 Z " fill="#1E1A15" transform="translate(10,7)"/>
<path d="M0 0 C0.78375 0.04125 1.5675 0.0825 2.375 0.125 C1.694375 0.681875 1.01375 1.23875 0.3125 1.8125 C-0.6465625 2.9571875 -0.6465625 2.9571875 -1.625 4.125 C-1.48474801 6.83205512 -1.48474801 6.83205512 -0.625 9.125 C2.345 9.455 5.315 9.785 8.375 10.125 C8.375 10.785 8.375 11.445 8.375 12.125 C6.58366022 12.17891993 4.79186101 12.21775571 3 12.25 C2.00226562 12.27320313 1.00453125 12.29640625 -0.0234375 12.3203125 C-2.625 12.125 -2.625 12.125 -4.625 10.125 C-4.890625 8.25 -4.890625 8.25 -4.875 6.125 C-4.88015625 5.42375 -4.8853125 4.7225 -4.890625 4 C-4.43038182 0.75122461 -3.13681296 0.14937205 0 0 Z " fill="#020406" transform="translate(15.625,39.875)"/>
<path d="M0 0 C1.37562854 1.28965176 2.70766393 2.62689293 4 4 C4 4.66 4 5.32 4 6 C-2.75309949 7.41373298 -9.09070403 8.43868546 -16 8 C-16.66 7.34 -17.32 6.68 -18 6 C-17.625 3.875 -17.625 3.875 -17 2 C-17 2.99 -17 3.98 -17 5 C-10.8894576 5.11269443 -5.04829486 4.89604368 1 4 C0.67 2.68 0.34 1.36 0 0 Z " fill="#CCD3DA" transform="translate(31,42)"/>
<path d="M0 0 C3 1 3 1 4 3 C4.99 3.33 5.98 3.66 7 4 C7 4.66 7 5.32 7 6 C9.97 6.495 9.97 6.495 13 7 C12.67 7.99 12.34 8.98 12 10 C10.20763933 9.52343588 8.41613103 9.04366502 6.625 8.5625 C5.62726562 8.29566406 4.62953125 8.02882813 3.6015625 7.75390625 C1 7 1 7 -1 6 C-1 3 -1 3 0 2 C0 1.34 0 0.68 0 0 Z " fill="#C1A587" transform="translate(3,3)"/>
<path d="M0 0 C0.33 0.66 0.66 1.32 1 2 C-15.70842825 5.62870159 -15.70842825 5.62870159 -24 4 C-24 3.67 -24 3.34 -24 3 C-20.93852743 2.49357075 -17.87567701 1.99600678 -14.8125 1.5 C-13.94818359 1.35691406 -13.08386719 1.21382812 -12.19335938 1.06640625 C-8.09473423 0.40685738 -4.16773976 -0.20709266 0 0 Z " fill="#225CCA" transform="translate(40,49)"/>
<path d="M0 0 C4.62 0 9.24 0 14 0 C14 0.99 14 1.98 14 3 C9.38 3 4.76 3 0 3 C0 2.01 0 1.02 0 0 Z " fill="#F4C3C4" transform="translate(14,27)"/>
<path d="M0 0 C1.98 0 3.96 0 6 0 C6 2.64 6 5.28 6 8 C4.68 8 3.36 8 2 8 C1.34 5.36 0.68 2.72 0 0 Z " fill="#E7B9BA" transform="translate(48,31)"/>
<path d="M0 0 C5.94 1.485 5.94 1.485 12 3 C12 3.66 12 4.32 12 5 C8.7 5 5.4 5 2 5 C2 4.01 2 3.02 2 2 C1.34 2 0.68 2 0 2 C0 1.34 0 0.68 0 0 Z " fill="#EFD9C0" transform="translate(4,2)"/>
<path d="M0 0 C1.67542976 0.28604898 3.34385343 0.61781233 5 1 C4.67 2.65 4.34 4.3 4 6 C2.68 6 1.36 6 0 6 C-0.38218767 4.34385343 -0.71395102 2.67542976 -1 1 C-0.67 0.67 -0.34 0.34 0 0 Z " fill="#D16F31" transform="translate(3,45)"/>
<path d="M0 0 C2.75457718 0.37994168 3.82020574 0.8073633 5.75 2.875 C7 5 7 5 7 8 C4.24542282 7.62005832 3.17979426 7.1926367 1.25 5.125 C0 3 0 3 0 0 Z " fill="#D3D7D8" transform="translate(33,39)"/>
<path d="M0 0 C2.97 0.495 2.97 0.495 6 1 C5.34 2.32 4.68 3.64 4 5 C2.02 5 0.04 5 -2 5 C-1.34 3.35 -0.68 1.7 0 0 Z " fill="#2884EE" transform="translate(43,14)"/>
<path d="M0 0 C3.0390625 0.4609375 3.0390625 0.4609375 6.625 1.375 C7.81351563 1.67148438 9.00203125 1.96796875 10.2265625 2.2734375 C11.14179687 2.51320313 12.05703125 2.75296875 13 3 C10 5 10 5 7.08203125 4.5390625 C6.00308594 4.23742187 4.92414062 3.93578125 3.8125 3.625 C2.72582031 3.32851562 1.63914062 3.03203125 0.51953125 2.7265625 C-0.31191406 2.48679687 -1.14335937 2.24703125 -2 2 C-1.34 1.34 -0.68 0.68 0 0 Z " fill="#2D2721" transform="translate(25,11)"/>
<path d="M0 0 C0.99 0 1.98 0 3 0 C3 0.66 3 1.32 3 2 C3.66 2 4.32 2 5 2 C4.34 3.65 3.68 5.3 3 7 C2.67 6.34 2.34 5.68 2 5 C1.01 5 0.02 5 -1 5 C-0.67 3.35 -0.34 1.7 0 0 Z " fill="#175685" transform="translate(55,16)"/>
<path d="M0 0 C3 1 3 1 4 3 C5.98 3 7.96 3 10 3 C10 3.66 10 4.32 10 5 C7.25 5.75 7.25 5.75 4 6 C1.625 4.1875 1.625 4.1875 0 2 C0 1.34 0 0.68 0 0 Z " fill="#D1DBDE" transform="translate(46,38)"/>
<path d="M0 0 C1.37562854 1.28965176 2.70766393 2.62689293 4 4 C4 4.66 4 5.32 4 6 C1.36 6.33 -1.28 6.66 -4 7 C-2.625 5.5 -2.625 5.5 -1 4 C-0.34 4 0.32 4 1 4 C0.67 2.68 0.34 1.36 0 0 Z " fill="#BCC2C9" transform="translate(31,42)"/>
<path d="M0 0 C0.99 0.66 1.98 1.32 3 2 C3 3.32 3 4.64 3 6 C1.02 6 -0.96 6 -3 6 C-2.01 5.67 -1.02 5.34 0 5 C-0.2784375 4.0409375 -0.2784375 4.0409375 -0.5625 3.0625 C-0.706875 2.381875 -0.85125 1.70125 -1 1 C-0.67 0.67 -0.34 0.34 0 0 Z " fill="#000203" transform="translate(23,33)"/>
<path d="M0 0 C6.6 0.6 6.6 0.6 9 3 C2.375 3.25 2.375 3.25 -1 1 C-0.67 0.67 -0.34 0.34 0 0 Z " fill="#EBC9A4" transform="translate(16,11)"/>
<path d="M0 0 C2.475 0.99 2.475 0.99 5 2 C4.67 2.99 4.34 3.98 4 5 C1.69 4.67 -0.62 4.34 -3 4 C-2.01 3.67 -1.02 3.34 0 3 C0 2.01 0 1.02 0 0 Z " fill="#090A0E" transform="translate(35,45)"/>
<path d="M0 0 C1.98 0.66 3.96 1.32 6 2 C6 2.66 6 3.32 6 4 C4.02 4 2.04 4 0 4 C0 2.68 0 1.36 0 0 Z " fill="#2255CC" transform="translate(49,22)"/>
<path d="M0 0 C0.66 0 1.32 0 2 0 C2 1.98 2 3.96 2 6 C1.34 6 0.68 6 0 6 C0 4.02 0 2.04 0 0 Z " fill="#000000" transform="translate(7,54)"/>
<path d="M0 0 C0.66 0 1.32 0 2 0 C2 1.98 2 3.96 2 6 C1.34 6 0.68 6 0 6 C0 4.02 0 2.04 0 0 Z " fill="#000000" transform="translate(4,54)"/>
<path d="M0 0 C0.66 0 1.32 0 2 0 C2 1.98 2 3.96 2 6 C1.34 6 0.68 6 0 6 C0 4.02 0 2.04 0 0 Z " fill="#000000" transform="translate(1,54)"/>
<path d="M0 0 C0.66 0 1.32 0 2 0 C2 0.66 2 1.32 2 2 C1.34 2 0.68 2 0 2 C0 1.34 0 0.68 0 0 Z " fill="#000000" transform="translate(7,61)"/>
<path d="M0 0 C0.66 0 1.32 0 2 0 C2 0.66 2 1.32 2 2 C1.34 2 0.68 2 0 2 C0 1.34 0 0.68 0 0 Z " fill="#000000" transform="translate(4,61)"/>
<path d="M0 0 C0.66 0 1.32 0 2 0 C2 0.66 2 1.32 2 2 C1.34 2 0.68 2 0 2 C0 1.34 0 0.68 0 0 Z " fill="#000000" transform="translate(1,61)"/>
</svg>
