<?xml version="1.0" encoding="UTF-8"?>
<svg version="1.1" xmlns="http://www.w3.org/2000/svg" width="100" height="100">
<path d="M0 0 C7.19196585 -0.44025813 13.24326852 1.17037072 20.12109375 3.17578125 C21.26159683 3.5016069 22.40209991 3.82743256 23.5771637 4.16313171 C25.97476403 4.8514196 28.37081843 5.54511303 30.76538086 6.24389648 C34.4449682 7.31467328 38.13106316 8.36041711 41.81835938 9.40429688 C44.14886861 10.07663246 46.47896246 10.7504099 48.80859375 11.42578125 C49.91577255 11.73840408 51.02295135 12.05102692 52.16368103 12.37312317 C53.17886307 12.67320786 54.1940451 12.97329254 55.23999023 13.2824707 C56.1374144 13.54228226 57.03483856 13.80209381 57.9594574 14.06977844 C58.63283646 14.37675156 59.30621552 14.68372467 60 15 C60.495 16.485 60.495 16.485 61 18 C62.72283203 18.14695312 62.72283203 18.14695312 64.48046875 18.296875 C88.54344541 20.54344541 88.54344541 20.54344541 93 25 C93.04063832 26.66617115 93.042721 28.33388095 93 30 C94.485 30.495 94.485 30.495 96 31 C96 33.31 96 35.62 96 38 C92.62902617 39.49821059 90.79557881 40 87 40 C86.855625 41.299375 86.71125 42.59875 86.5625 43.9375 C86.125 47.875 86.125 47.875 85 49 C84.76636119 50.84891946 84.58696365 52.70488031 84.4375 54.5625 C84.35371094 55.57441406 84.26992187 56.58632813 84.18359375 57.62890625 C84.12300781 58.41136719 84.06242187 59.19382813 84 60 C84.66 60 85.32 60 86 60 C87.39935013 62.79870027 87.25265405 64.90498792 87 68 C85.06038975 70.81243487 83.24487266 71.32243792 80 72 C77.24682026 72.22390317 74.50694671 72.41393662 71.75 72.5625 C70.63238281 72.62727539 70.63238281 72.62727539 69.4921875 72.69335938 C67.661651 72.79896725 65.83084824 72.89994201 64 73 C63.15937603 76.09773244 62.91064799 78.78332751 63 82 C63.61359375 82.24363281 64.2271875 82.48726563 64.859375 82.73828125 C67.46120211 84.27183993 68.05941566 85.44254167 69.25 88.1875 C69.75273437 89.29158203 69.75273437 89.29158203 70.265625 90.41796875 C71 93 71 93 71 100 C56.81 100 42.62 100 28 100 C27.67 97.36 27.34 94.72 27 92 C25.91290735 89.8011968 25.91290735 89.8011968 24.4375 88.1875 C22 85.28045326 22 85.28045326 22 82 C20.6078125 81.62875 20.6078125 81.62875 19.1875 81.25 C15.69923829 79.88205423 14.58829909 79.35307586 13 76 C12.4754154 71.27873862 12.27358018 69.15225213 14.8125 65.125 C17 63 17 63 20 61 C19.38125 60.278125 18.7625 59.55625 18.125 58.8125 C16 56 16 56 15 53.3125 C13.77575583 50.48143536 12.73659513 50.20829503 10 49 C9.91839252 47.10489301 9.86053541 45.20875496 9.8125 43.3125 C9.77769531 42.25675781 9.74289062 41.20101562 9.70703125 40.11328125 C10.03870827 36.58866007 10.98246536 34.86830227 13 32 C13.70125 30.948125 14.4025 29.89625 15.125 28.8125 C15.74375 27.884375 16.3625 26.95625 17 26 C17.33 25.34 17.66 24.68 18 24 C17.05362671 23.68977905 17.05362671 23.68977905 16.08813477 23.37329102 C13.24522551 22.43946574 10.40385384 21.50104674 7.5625 20.5625 C6.56927734 20.23701172 5.57605469 19.91152344 4.55273438 19.57617188 C3.60849609 19.26357422 2.66425781 18.95097656 1.69140625 18.62890625 C0.81685791 18.34088135 -0.05769043 18.05285645 -0.95874023 17.75610352 C-3 17 -3 17 -4 16 C-4.56909729 9.51229092 -3.31150602 5.5585994 0 0 Z M44 32 C44.309375 32.61875 44.61875 33.2375 44.9375 33.875 C46.65948516 37.31897032 47.11233086 39.2381933 47.0625 43.125 C47.05347656 44.03507812 47.04445313 44.94515625 47.03515625 45.8828125 C47.02355469 46.58148438 47.01195312 47.28015625 47 48 C46.35546875 48.26554687 45.7109375 48.53109375 45.046875 48.8046875 C44.37140625 49.19914062 43.6959375 49.59359375 43 50 C42.18415432 53.05908413 42.18415432 53.05908413 42 56 C45.63 56.33 49.26 56.66 53 57 C57.02465761 48.82872545 57.29276452 42.96504093 56 34 C54.948125 33.855625 53.89625 33.71125 52.8125 33.5625 C49.84539451 33.12473034 46.93205634 32.62195134 44 32 Z M70 49 C70.33 49.66 70.66 50.32 71 51 C71.33 50.34 71.66 49.68 72 49 C71.34 49 70.68 49 70 49 Z " fill="#0D0E10" transform="translate(4,0)"/>
<path d="M0 0 C0.495 0.99 0.495 0.99 1 2 C1.99 2.33 2.98 2.66 4 3 C4 3.66 4 4.32 4 5 C4.61359375 5.24363281 5.2271875 5.48726563 5.859375 5.73828125 C8.46120211 7.27183993 9.05941566 8.44254167 10.25 11.1875 C10.58515625 11.92355469 10.9203125 12.65960938 11.265625 13.41796875 C12 16 12 16 12 23 C-2.19 23 -16.38 23 -31 23 C-31.33 20.36 -31.66 17.72 -32 15 C-33.08820086 12.83431178 -33.08820086 12.83431178 -34.5625 11.25 C-37.01408461 8.38866046 -37 8.16269244 -37 4 C-36.05640625 3.87882812 -35.1128125 3.75765625 -34.140625 3.6328125 C-32.85671875 3.46523437 -31.5728125 3.29765625 -30.25 3.125 C-29.5691333 3.03621582 -28.8882666 2.94743164 -28.18676758 2.85595703 C-23.99730108 2.29879764 -19.84615204 1.63407599 -15.6875 0.875 C-10.41648759 -0.04045399 -5.33823889 -0.21258473 0 0 Z " fill="#2A8DF8" transform="translate(63,77)"/>
<path d="M0 0 C7.3174521 1.55920393 14.52892954 3.42020834 21.75 5.375 C22.90145508 5.68590576 24.05291016 5.99681152 25.23925781 6.31713867 C34.92230634 8.94768648 44.484583 11.81428291 54 15 C53.67 16.32 53.34 17.64 53 19 C45.51359756 18.39775228 38.65781647 16.26280811 31.5 14.0625 C20.81229218 10.80423351 20.81229218 10.80423351 10 8 C10 8.66 10 9.32 10 10 C11.02996094 10.30292969 12.05992188 10.60585937 13.12109375 10.91796875 C14.1411853 11.21803833 14.1411853 11.21803833 15.18188477 11.52416992 C16.70184229 11.97115819 18.22186315 12.41793109 19.74194336 12.86450195 C23.70705531 14.02970445 27.67113643 15.19816409 31.6328125 16.375 C32.3760376 16.59518799 33.1192627 16.81537598 33.88500977 17.04223633 C35.29475398 17.459991 36.70412247 17.87901655 38.11303711 18.29956055 C42.71439959 19.66089365 47.33826395 20.8618504 52 22 C51.67 23.98 51.34 25.96 51 28 C40.53358209 25.63351213 40.53358209 25.63351213 36 22.375 C32.9056239 20.23990975 30.78132772 19.72978888 27.04296875 19.60546875 C20.39875393 19.12590959 14.5596298 17.15249581 8.3125 14.9375 C7.21744141 14.56044922 6.12238281 14.18339844 4.99414062 13.79492188 C2.32538743 12.87426029 -0.33891298 11.94254171 -3 11 C-2.67 9.68 -2.34 8.36 -2 7 C-0.02 7.495 -0.02 7.495 2 8 C1.67 7.01 1.34 6.02 1 5 C0.34 4.67 -0.32 4.34 -1 4 C-0.67 2.68 -0.34 1.36 0 0 Z " fill="#D9BA98" transform="translate(6,3)"/>
<path d="M0 0 C1.23685547 -0.05800781 2.47371094 -0.11601563 3.74804688 -0.17578125 C12.68754798 -0.30134961 12.68754798 -0.30134961 15.65771484 2.45019531 C16.92480061 4.47521007 17.89062176 6.37697124 18.6875 8.625 C-5.22694982 14.22838573 -5.22694982 14.22838573 -12.3125 12.625 C-14.63671875 10.7890625 -14.63671875 10.7890625 -16.3125 8.625 C-15.89870831 -1.71979235 -8.30500522 0.12862682 0 0 Z " fill="#FAFBFD" transform="translate(36.3125,65.375)"/>
<path d="M0 0 C7.3174521 1.55920393 14.52892954 3.42020834 21.75 5.375 C22.90145508 5.68590576 24.05291016 5.99681152 25.23925781 6.31713867 C34.92230634 8.94768648 44.484583 11.81428291 54 15 C53.67 16.32 53.34 17.64 53 19 C45.54772636 18.40197804 38.74502828 16.26799122 31.625 14.0625 C23.79833811 11.64798345 16.07958327 9.39354916 8 8 C8 7.34 8 6.68 8 6 C6.35 6.33 4.7 6.66 3 7 C3 6.01 3 5.02 3 4 C1.68 4 0.36 4 -1 4 C-0.67 2.68 -0.34 1.36 0 0 Z " fill="#EEDBC6" transform="translate(6,3)"/>
<path d="M0 0 C6.40782123 6.23463687 6.40782123 6.23463687 8 9 C8 10.98 8 12.96 8 15 C19.88 15 31.76 15 44 15 C42.02 11.04 40.04 7.08 38 3 C38.33 2.01 38.66 1.02 39 0 C42.53039233 1.40177343 43.74611782 2.72021609 45.25 6.1875 C45.58515625 6.92355469 45.9203125 7.65960938 46.265625 8.41796875 C47 11 47 11 47 18 C32.81 18 18.62 18 4 18 C3.67 15.36 3.34 12.72 3 10 C1.91398044 7.76808215 1.91398044 7.76808215 0.4375 6.125 C-2 3 -2 3 -2 1 C-1.34 0.67 -0.68 0.34 0 0 Z " fill="#000203" transform="translate(28,82)"/>
<path d="M0 0 C2.99993115 2.54994148 3.85480459 4.12882756 4.5 8 C3.85480459 11.87117244 2.99993115 13.45005852 0 16 C-3.99893269 16.94237143 -6.98105682 16.61136591 -10.5 14.5 C-12.62153384 10.96411027 -12.791013 8.02098277 -12 4 C-9.20664469 -0.65559218 -5.02394308 -1.18392101 0 0 Z " fill="#040100" transform="translate(12,67)"/>
<path d="M0 0 C1.98 0 3.96 0 6 0 C4.92380059 8.11397712 3.07677695 15.41260829 0 23 C-2.5625 21 -2.5625 21 -5 18 C-5.11103268 11.44907165 -2.61167429 5.92789327 0 0 Z " fill="#F0CBCA" transform="translate(65,45)"/>
<path d="M0 0 C4.13033518 1.82503182 6.36136247 4.3840893 9 8 C6.05868109 8.98043964 4.17498335 9.11621202 1.11328125 9.09765625 C0.17548828 9.09443359 -0.76230469 9.09121094 -1.72851562 9.08789062 C-2.70498047 9.07951172 -3.68144531 9.07113281 -4.6875 9.0625 C-6.16959961 9.05573242 -6.16959961 9.05573242 -7.68164062 9.04882812 C-10.12115474 9.03704303 -12.56054689 9.02059011 -15 9 C-12.41636351 1.68576148 -7.75805407 -0.9873887 0 0 Z " fill="#2864F0" transform="translate(36,25)"/>
<path d="M0 0 C2.97 0.33 5.94 0.66 9 1 C8.525625 1.825 8.05125 2.65 7.5625 3.5 C5.76430401 7.52795901 5.3765745 10.63173579 5 15 C2.03 15 -0.94 15 -4 15 C-5.56659619 8.13107822 -5.56659619 8.13107822 -3.953125 4.91015625 C-2.71640986 3.21140989 -1.36472472 1.5977265 0 0 Z " fill="#2985F3" transform="translate(68,22)"/>
<path d="M0 0 C2.69378051 2.51419515 4.44805246 4.67240077 6 8 C-17.91444982 13.60338573 -17.91444982 13.60338573 -25 12 C-27.33203125 10.109375 -27.33203125 10.109375 -29 8 C-28.75 5.75 -28.75 5.75 -28 4 C-27.4534375 4.65226562 -26.906875 5.30453125 -26.34375 5.9765625 C-22.77063131 9.06135497 -19.87263024 8.41895121 -15.328125 8.2734375 C-10.15481819 7.84840056 -5.08848141 7.01047858 0 6 C0 4.02 0 2.04 0 0 Z " fill="#CED5DC" transform="translate(49,66)"/>
<path d="M0 0 C7.26 0 14.52 0 22 0 C22 1.65 22 3.3 22 5 C14.74 5 7.48 5 0 5 C0 3.35 0 1.7 0 0 Z " fill="#E1B4B4" transform="translate(22,42)"/>
<path d="M0 0 C-2 3 -2 3 -4.00390625 3.40625 C-4.84824219 3.4371875 -5.69257812 3.468125 -6.5625 3.5 C-12.58346764 3.85981878 -18.35601388 4.92142799 -24.24829102 6.16015625 C-29.67494187 7.21670542 -29.67494187 7.21670542 -33 5 C-33.66 5 -34.32 5 -35 5 C-35 4.34 -35 3.68 -35 3 C-34.05640625 2.87882812 -33.1128125 2.75765625 -32.140625 2.6328125 C-30.85671875 2.46523437 -29.5728125 2.29765625 -28.25 2.125 C-27.5705835 2.03694092 -26.89116699 1.94888184 -26.19116211 1.8581543 C-21.95311788 1.29708348 -17.76499558 0.60349469 -13.5625 -0.1875 C-8.72060025 -1.03270307 -4.81641305 -0.92623328 0 0 Z " fill="#2053C3" transform="translate(61,78)"/>
<path d="M0 0 C2.97 0 5.94 0 9 0 C9 3.3 9 6.6 9 10 C6.03 10 3.06 10 0 10 C0 6.7 0 3.4 0 0 Z " fill="#000000" transform="translate(6,84)"/>
<path d="M0 0 C2.64 0 5.28 0 8 0 C8 3.96 8 7.92 8 12 C4 13 4 13 2.3125 12 C-0.06296642 8.38024165 0 4.22920976 0 0 Z " fill="#EBBCBD" transform="translate(76,49)"/>
<path d="M0 0 C4.55555556 0.55555556 4.55555556 0.55555556 6 2 C6.1875 4.9375 6.1875 4.9375 6 8 C5.34 8.66 4.68 9.32 4 10 C0.70285207 9.67028521 -0.6226839 9.3773161 -3 7 C-2.67028521 3.70285207 -2.3773161 2.3773161 0 0 Z " fill="#D97436" transform="translate(6,70)"/>
<path d="M0 0 C0.79470703 -0.01224609 1.58941406 -0.02449219 2.40820312 -0.03710938 C7.07282268 -0.04868411 10.79940048 0.39975575 15.1875 2.1875 C15.1875 2.5175 15.1875 2.8475 15.1875 3.1875 C5.6175 3.1875 -3.9525 3.1875 -13.8125 3.1875 C-9.89409181 -0.73090819 -5.18192274 0.00414222 0 0 Z " fill="#289CEE" transform="translate(31.8125,35.8125)"/>
<path d="M0 0 C3.26008643 3.16952847 6.22237877 6.39937989 9 10 C8.34 11.32 7.68 12.64 7 14 C3.64117925 12.58768539 1.86670953 10.96631022 -0.3125 8.0625 C-1.11107422 7.02802734 -1.11107422 7.02802734 -1.92578125 5.97265625 C-2.28027344 5.32167969 -2.63476562 4.67070313 -3 4 C-2.67 3.01 -2.34 2.02 -2 1 C-1.34 0.67 -0.68 0.34 0 0 Z " fill="#E8EBEC" transform="translate(54,60)"/>
<path d="M0 0 C3.3 0 6.6 0 10 0 C10 2.31 10 4.62 10 7 C7.03 7 4.06 7 1 7 C0.67 4.69 0.34 2.38 0 0 Z " fill="#2764ED" transform="translate(63,30)"/>
<path d="M0 0 C1.875 0.3125 1.875 0.3125 4 1 C4.66 1.99 5.32 2.98 6 4 C8.20725073 4.36362818 8.20725073 4.36362818 10.625 4.1875 C11.44226563 4.16042969 12.25953125 4.13335937 13.1015625 4.10546875 C13.72804688 4.07066406 14.35453125 4.03585938 15 4 C15 4.99 15 5.98 15 7 C12.36118498 8.28171015 10.45409914 9.01135248 7.5 8.9375 C4.09125936 7.65922226 2.31155259 5.77386311 0 3 C0 2.01 0 1.02 0 0 Z " fill="#D5DEE2" transform="translate(72,60)"/>
<path d="M0 0 C3.3 0.66 6.6 1.32 10 2 C10.33 3.32 10.66 4.64 11 6 C10.67 6.33 10.34 6.66 10 7 C1.71320755 6.32075472 1.71320755 6.32075472 -2 4 C-1.34 3.34 -0.68 2.68 0 2 C0 1.34 0 0.68 0 0 Z " fill="#EBD1B3" transform="translate(49,15)"/>
<path d="M0 0 C4.455 0.99 4.455 0.99 9 2 C9 3.32 9 4.64 9 6 C2.84765625 6.09765625 2.84765625 6.09765625 1 6 C0 5 0 5 -0.0625 2.4375 C-0.041875 1.633125 -0.02125 0.82875 0 0 Z " fill="#2050BF" transform="translate(77,35)"/>
<path d="M0 0 C0.33 0.66 0.66 1.32 1 2 C2.65 2 4.3 2 6 2 C5.67 2.66 5.34 3.32 5 4 C4.34 4 3.68 4 3 4 C3 4.66 3 5.32 3 6 C-0.96 6 -4.92 6 -9 6 C-6.30351311 3.30351311 -3.33388038 1.85215576 0 0 Z " fill="#2C75BE" transform="translate(44,57)"/>
<path d="M0 0 C2.475 0.495 2.475 0.495 5 1 C5.103125 2.03125 5.20625 3.0625 5.3125 4.125 C5.81245731 8.00961757 5.81245731 8.00961757 7.625 11.25 C8.07875 12.1575 8.5325 13.065 9 14 C8.67 14.99 8.34 15.98 8 17 C6.65869239 14.73354942 5.32683766 12.46239903 4 10.1875 C3.42765625 9.22360352 3.42765625 9.22360352 2.84375 8.24023438 C0 3.33984375 0 3.33984375 0 0 Z " fill="#2AAAF5" transform="translate(62,79)"/>
<path d="M0 0 C1.32 0 2.64 0 4 0 C4 3.3 4 6.6 4 10 C2.68 10 1.36 10 0 10 C0 6.7 0 3.4 0 0 Z " fill="#000000" transform="translate(1,84)"/>
<path d="M0 0 C2.97 0 5.94 0 9 0 C9 1.32 9 2.64 9 4 C6.03 4 3.06 4 0 4 C0 2.68 0 1.36 0 0 Z " fill="#000000" transform="translate(6,95)"/>
<path d="M0 0 C1.65 1.65 3.3 3.3 5 5 C1.33012779 6.22329074 -1.33967822 5.88021006 -5.1875 5.5625 C-6.45980469 5.46066406 -7.73210938 5.35882813 -9.04296875 5.25390625 C-10.01878906 5.17011719 -10.99460937 5.08632813 -12 5 C-12 4.67 -12 4.34 -12 4 C-6.06 3.505 -6.06 3.505 0 3 C0 2.01 0 1.02 0 0 Z " fill="#255EDA" transform="translate(40,28)"/>
<path d="M0 0 C-0.99 1.485 -0.99 1.485 -2 3 C-4.1640625 3.29296875 -4.1640625 3.29296875 -6.625 3.1875 C-7.44226562 3.16042969 -8.25953125 3.13335937 -9.1015625 3.10546875 C-10.04128906 3.05326172 -10.04128906 3.05326172 -11 3 C-10.67 2.01 -10.34 1.02 -10 0 C-6.7169902 -1.6415049 -3.57454967 -0.51888624 0 0 Z " fill="#2259CE" transform="translate(61,78)"/>
<path d="M0 0 C-2.15388245 1.11682794 -4.18669975 2.06067742 -6.5 2.8125 C-9.61072857 4.29009607 -10.93551687 6.29481521 -13 9 C-13.66 9 -14.32 9 -15 9 C-14.03714243 5.53371274 -13.07650505 4.06582992 -10.3125 1.6875 C-6.55857236 -0.22487823 -4.15526857 -0.33242149 0 0 Z " fill="#246DD7" transform="translate(36,25)"/>
<path d="M0 0 C1.8125 0.0625 1.8125 0.0625 4 1 C6.09669068 4.96873594 7 7.48438726 7 12 C6.34 12 5.68 12 5 12 C4.731875 11.0925 4.46375 10.185 4.1875 9.25 C3.09683752 6.26502899 1.93197145 4.45887276 0 2 C0 1.34 0 0.68 0 0 Z " fill="#2AAAF6" transform="translate(31,84)"/>
<path d="M0 0 C2.97 0.495 2.97 0.495 6 1 C5.67 2.32 5.34 3.64 5 5 C5.66 5.33 6.32 5.66 7 6 C5.68 6.33 4.36 6.66 3 7 C3 6.01 3 5.02 3 4 C1.68 4 0.36 4 -1 4 C-0.67 2.68 -0.34 1.36 0 0 Z " fill="#ECD1B3" transform="translate(6,3)"/>
<path d="M0 0 C2.66735273 2.48952921 4.55746343 4.63408134 6 8 C4.02 8.33 2.04 8.66 0 9 C0 6.03 0 3.06 0 0 Z " fill="#C8CFD6" transform="translate(49,66)"/>
<path d="M0 0 C1.98 0 3.96 0 6 0 C5.34 3.96 4.68 7.92 4 12 C3.67 12 3.34 12 3 12 C3 9.03 3 6.06 3 3 C2.01 2.67 1.02 2.34 0 2 C0 1.34 0 0.68 0 0 Z " fill="#C5A1A2" transform="translate(65,45)"/>
<path d="M0 0 C1.32 0.33 2.64 0.66 4 1 C2.68 3.31 1.36 5.62 0 8 C-0.66 8 -1.32 8 -2 8 C-1.125 2.25 -1.125 2.25 0 0 Z " fill="#258CDC" transform="translate(86,26)"/>
<path d="M0 0 C2.31 0 4.62 0 7 0 C7.33 1.65 7.66 3.3 8 5 C6.02 4.34 4.04 3.68 2 3 C2 2.34 2 1.68 2 1 C1.34 0.67 0.68 0.34 0 0 Z " fill="#76A9F3" transform="translate(32,26)"/>
<path d="M0 0 C1.65 1.65 3.3 3.3 5 5 C4.34 6.32 3.68 7.64 3 9 C2.01 8.67 1.02 8.34 0 8 C0.2784375 7.13375 0.2784375 7.13375 0.5625 6.25 C1.04023546 3.79307475 0.75729364 2.35602466 0 0 Z " fill="#D4DCDE" transform="translate(58,65)"/>
<path d="M0 0 C0.99 0 1.98 0 3 0 C2.125 5.75 2.125 5.75 1 8 C0.34 8 -0.32 8 -1 8 C-0.67 5.36 -0.34 2.72 0 0 Z " fill="#268CE1" transform="translate(80,24)"/>
<path d="M0 0 C2.97 0.495 2.97 0.495 6 1 C6 1.99 6 2.98 6 4 C3.03 3.505 3.03 3.505 0 3 C0 2.01 0 1.02 0 0 Z " fill="#FDEBD8" transform="translate(11,5)"/>
<path d="M0 0 C1.98 0 3.96 0 6 0 C6 0.99 6 1.98 6 3 C4.02 3 2.04 3 0 3 C0 2.01 0 1.02 0 0 Z " fill="#E2B8B9" transform="translate(30,56)"/>
<path d="M0 0 C0.33 0 0.66 0 1 0 C1 2.31 1 4.62 1 7 C-1.97 7 -4.94 7 -8 7 C-8 6.67 -8 6.34 -8 6 C-5.69 5.34 -3.38 4.68 -1 4 C-0.67 2.68 -0.34 1.36 0 0 Z " fill="#2357D1" transform="translate(72,30)"/>
<path d="M0 0 C2 1.375 2 1.375 4 3 C4 3.66 4 4.32 4 5 C2.35 5 0.7 5 -1 5 C-0.67 3.35 -0.34 1.7 0 0 Z " fill="#8D949B" transform="translate(69,64)"/>
<path d="M0 0 C1.32 0 2.64 0 4 0 C4 1.32 4 2.64 4 4 C2.68 4 1.36 4 0 4 C0 2.68 0 1.36 0 0 Z " fill="#000000" transform="translate(1,95)"/>
</svg>
